<mxfile host="app.diagrams.net" modified="2024-03-18T13:25:06.895Z" agent="Mozilla/5.0 (Windows NT 10.0; Win64; x64) AppleWebKit/537.36 (KHTML, like Gecko) Chrome/121.0.0.0 Safari/537.36" etag="x4pmWwKEd3xdOrSa5_P7" version="24.0.0" type="device">
  <diagram name="Страница — 1" id="ZsrS2LmH9JLtYE3I7c1U">
    <mxGraphModel dx="614" dy="828" grid="0" gridSize="10" guides="1" tooltips="1" connect="1" arrows="1" fold="1" page="0" pageScale="1" pageWidth="827" pageHeight="1169" math="0" shadow="0">
      <root>
        <mxCell id="0" />
        <mxCell id="1" parent="0" />
      </root>
    </mxGraphModel>
  </diagram>
</mxfile>
